<svg xmlns="http://www.w3.org/2000/svg" viewBox="0 0 541 251.65"><defs><style>.cls-1{fill:#ff6a00;}.cls-2{fill:#231f20;}.cls-3{fill:#fdddd0;stroke:#262626;}.cls-10,.cls-3,.cls-6,.cls-7,.cls-8{stroke-linecap:round;stroke-linejoin:round;}.cls-3,.cls-8{stroke-width:4.29px;}.cls-11,.cls-12,.cls-14,.cls-15,.cls-18,.cls-20,.cls-21,.cls-22,.cls-23,.cls-25,.cls-3,.cls-4,.cls-5,.cls-8,.cls-9{fill-rule:evenodd;}.cls-17,.cls-4{fill:#fefefe;}.cls-19,.cls-5{fill:#fbb699;}.cls-10,.cls-6,.cls-7{fill:none;}.cls-6{stroke:#2b2b2b;}.cls-6,.cls-7{stroke-width:2.98px;}.cls-7{stroke:#303030;}.cls-8{fill:#733d19;}.cls-10,.cls-8{stroke:#1b0000;}.cls-9{fill:#b54d1a;}.cls-10{stroke-width:1.57px;}.cls-11{fill:#542915;}.cls-12{fill:#fcb792;}.cls-13{fill:#262626;}.cls-14{fill:#92540b;}.cls-15{fill:#ce8000;}.cls-16{fill:#242323;}.cls-18{fill:#292929;}.cls-20{fill:#373435;}.cls-21{fill:#913460;}.cls-22,.cls-24{fill:#792d2e;}.cls-23{fill:#ffb2d2;}.cls-25{fill:#b56989;fill-opacity:0.5;}</style></defs><g id="Layer_2" data-name="Layer 2"><g id="Layer_1-2" data-name="Layer 1"><g id="Layer_1-3" data-name="Layer_1"><path class="cls-1" d="M473.7,55.35q.71,6.16,4.36,9.6a15,15,0,0,0,7.58,3.61,25.41,25.41,0,0,0,10.47-.23L495.68,41a28,28,0,0,0-10.23-1.12,12.29,12.29,0,0,0-7.58,2.69,11.59,11.59,0,0,0-3.42,5.28,16.53,16.53,0,0,0-.75,7.47Zm-27.28-.92a35.78,35.78,0,0,1,.48-6.61A53.7,53.7,0,0,1,448.37,41a46.27,46.27,0,0,1,3-7.83Q461.77,12,489.26,12A113.83,113.83,0,0,1,524,16.72l-3.22,78.07a101.57,101.57,0,0,1-11.89,1.42,110.11,110.11,0,0,1-26.13-1q-16.49-2.83-25.68-11.3-11.44-10.64-10.7-29.5Z"/><path class="cls-2" d="M69.65,153.11c-.06,8.48-3.61,14-10.65,16.76a23.34,23.34,0,0,1-10.56,1.46l-1.07-39A27.29,27.29,0,0,1,58.5,135a19.92,19.92,0,0,1,7.69,6.2,20,20,0,0,1,3.46,11.89ZM3,245l47.46-3.46-1.24-35.49c3.8,1.21,9,1.38,15.77.48a63.49,63.49,0,0,0,22.19-7.24q28.22-15.77,26.56-53.65-1-21-18.9-32-14.44-8.91-38.95-11.15A204.91,204.91,0,0,0,0,104.93Z"/><path class="cls-2" d="M341.13,153.11c-.06,8.48-3.61,14-10.65,16.76a23.34,23.34,0,0,1-10.56,1.46l-1.07-39A27.21,27.21,0,0,1,330,135a18.6,18.6,0,0,1,11.16,18.09ZM274.44,245l47.46-3.46-1.24-35.49c3.8,1.21,9,1.38,15.77.48a63.49,63.49,0,0,0,22.19-7.24q28.22-15.77,26.56-53.65-1-21-18.9-32-14.44-8.91-38.95-11.15a204.91,204.91,0,0,0-55.85,2.39Z"/><path class="cls-2" d="M493.78,182.83a29.08,29.08,0,0,1-12,19A32.88,32.88,0,0,1,459,208.4q-12.46-.93-19.88-9.83a24.23,24.23,0,0,1-5.52-20.45c1.32-7.72,5.32-14.05,12.05-19.07a33.31,33.31,0,0,1,22.67-6.53q12.47,1,20,9.91A24.41,24.41,0,0,1,493.78,182.83ZM476.21,110.7q-31.4-2.42-56.95,16.42a80.56,80.56,0,0,0-20.05,21.12,72.82,72.82,0,0,0-10.48,26.9,63.12,63.12,0,0,0,13.86,51.4,66.42,66.42,0,0,0,21.55,16.93,75.22,75.22,0,0,0,28.56,7.91q31.35,2.42,56.92-16.42a77.68,77.68,0,0,0,19.88-21.12,70,70,0,0,0,10.56-26.9,62.4,62.4,0,0,0-13.85-51.4,67.91,67.91,0,0,0-21.55-16.93,75.13,75.13,0,0,0-28.45-7.91Z"/><polygon class="cls-1" points="329.21 99.52 318.83 72.32 304.35 91.26 285.97 69.45 278.44 98.94 248.84 88.92 272.26 12.7 303.43 47.33 329.49 13.29 357.78 87.63 329.21 99.52"/><path class="cls-1" d="M222.31,182.83a29.08,29.08,0,0,1-12.05,19,32.88,32.88,0,0,1-22.7,6.53q-12.47-.93-19.88-9.83a24.23,24.23,0,0,1-5.52-20.45c1.32-7.72,5.32-14.05,12.05-19.07a33.31,33.31,0,0,1,22.67-6.53q12.47,1,20,9.91A24.48,24.48,0,0,1,222.31,182.83ZM204.73,110.7q-31.39-2.42-56.95,16.42a80.56,80.56,0,0,0-20,21.12,72.82,72.82,0,0,0-10.48,26.9,63.12,63.12,0,0,0,13.86,51.4,66.42,66.42,0,0,0,21.55,16.93,75.22,75.22,0,0,0,28.56,7.91q31.35,2.42,56.92-16.42A77.68,77.68,0,0,0,258,213.84a70,70,0,0,0,10.56-26.9,62.4,62.4,0,0,0-13.85-51.4,67.91,67.91,0,0,0-21.55-16.93,75.13,75.13,0,0,0-28.45-7.91Z"/><path class="cls-3" d="M111.43,110.07s-3.66-14.65-14.11-15.74c0,0-12.31,1.92-11.36,21s6.53,17.31,6.65,17.48c0,0-.81,45.74,38.25,80.19s60.6,35.4,85,24a86.61,86.61,0,0,0,17.19-11.94c12.17-10.67,30.19-41.78,34.83-57.91,4.89-17,3.35-31.72-2.27-46.95C262.37,111.43,250,86,243.94,79.89L242.06,78c-8.82-8.27-43.86-39.87-73.86-49.28,0,0-7.6-6.78-14.79,4.61S146.9,51.65,139.3,56c0,0-2.37,1.42-3.53,6.71s-5.36,10.45-12.07,10.78c0,0,4-3.32,3.87-7.12-27.25,18.92-3.27,30.17-15.69,43.22a4.22,4.22,0,0,1-.45.49Z"/><path class="cls-4" d="M235.2,223.2C282,163,275.48,136,252.79,94.85c-3.52-6.38-5.9-11.59-11.14-16.54-8.73-8.18-42.72-39.49-72.51-49.25C194.76,42,317.46,118.57,235.2,223.2ZM167.55,28.26a9.46,9.46,0,0,0-2.4-1.14C165.74,27.39,166.54,27.76,167.55,28.26Z"/><path class="cls-5" d="M93.15,132.88c0-.15-.85,32.46,23.38,64.1a111.12,111.12,0,0,0,14.62,15.6c27.75,24.6,45.9,31.29,62.29,30.69,8-.52,16.51-4.16,19-5.29.2-.09-29.95,8.48-72.68-27.29-39.94-33.43-40.9-79.8-40.9-79.8-2,1.16-5.32,4.09-5.71,2Z"/><path class="cls-5" d="M106.18,122.84c-7.71,4.41-10.62-9.76-1.54-13.46,0,0-2.76-7-10.36-6.57C86.11,118.26,98.36,132.54,106.18,122.84Z"/><path class="cls-6" d="M95.51,102.79s9.36-.47,11.06,13.77"/><path class="cls-7" d="M99,118.79s-.22-7.16,5.6-9.41"/><path class="cls-8" d="M111.43,110.07s-3.66-14.65-14.11-15.74c-.49-.08-7.63-19.59,11.43-32.76,1-.7-7.64-.08-14.54,3.83,0,0,6.11-11.7,22.43-17.8,0,0-10.72.54-23.74,10.38,0,0,7.19-23.4,32-28.76-.44.42-17.78-2.18-27.67,0,0,0,10.11-21.43,44.9-7.73,0,0-1.38-21.5,29.91-19.17,0,0-19.67,7.77-18.72,15.81,0,0,9.78-11.39,29.64-5.73a25,25,0,0,1-4.24,5,28.7,28.7,0,0,1,22,10s19.57,5,22.56-12.11c0,0,4.83,10.59-8.47,19.54,0,0,14.58,2.85,23.74,19.87a40.48,40.48,0,0,0-20.82-4.27c1,1.19,12.54-.18,21.8,18A73.94,73.94,0,0,1,244.15,80s-41.33-40.42-76-51.28c0,0-7.6-6.78-14.79,4.61S146.89,51.66,139.29,56c0,0-2.37,1.42-3.53,6.71s-5.36,10.45-12.07,10.78c0,0,4-3.32,3.87-7.12-27.55,19.16-2.67,30.46-16.13,43.7Z"/><path class="cls-9" d="M182.35,23.1c1,.15,13.29,4.88,23.29,5.42,8.89.48,16.14-3.57,17.69-11.12C225.24,26.71,202.73,43.74,182.35,23.1Z"/><path class="cls-9" d="M214.8,35.34s13.54,2.78,22.43,18.09A34.75,34.75,0,0,0,231,51.2S228.91,43.06,214.8,35.34Z"/><path class="cls-9" d="M175.51,17.61s14.92-.81,23.46,8.77c1.68,1.88-2.73.54-3.27.28-4-1.9-8.4-7.43-20.19-9Z"/><path class="cls-9" d="M155.84,16.67s10.38-8.77,26.26-4C182.1,12.71,167.39,12.73,155.84,16.67Z"/><path class="cls-10" d="M171.37,24.25s-6.92-2.68-14.73,5.13"/><path class="cls-11" d="M145.38,76.57c.18-7.17,8.8-12,13.73-11.58,5.67.48,5,6.23,1.13,4.55C158.47,68.78,148.81,67.79,145.38,76.57Z"/><path class="cls-11" d="M214.48,75.12C214.43,68,205.9,63,201,63.29c-5.68.38-5.15,6.14-1.22,4.52,1.79-.72,11.47-1.53,14.73,7.31Z"/><path class="cls-12" d="M193.79,72.13c-13,6.81-5.43,26.89,6.28,31.23,6.51-4.39,8.89-5,15.56-6.82,5.2-15.62-9.24-31-21.84-24.41Z"/><path class="cls-4" d="M194.61,73.87C188,77.33,186,86.61,190.23,94.6a17.86,17.86,0,0,0,9.83,8.76c4.86-3,9.53-5.79,15.17-6.71,1.74-4.24,2.3-8.12-1.08-14.58s-12.93-11.66-19.54-8.2Z"/><path id="_1" data-name="1" class="cls-13" d="M189.87,94.79h0l-.38-.77-.35-.77-.31-.78-.27-.78-.24-.79-.2-.79-.17-.79-.13-.79-.1-.78-.06-.78,0-.77v-.77l0-.76.07-.75.1-.74.14-.73.17-.72.2-.7.23-.68.26-.67.3-.65.33-.63.36-.61.39-.59.42-.56.45-.54.48-.51.51-.48.54-.45.57-.42.6-.39.63-.35.38.72-.58.33-.56.36-.53.39-.5.42-.48.45-.45.47-.42.5-.39.53-.37.55-.34.57-.31.59-.28.61-.25.63-.22.65-.19.66-.16.68-.13.69-.1.7-.07.71,0,.72v.73l0,.74.06.74.09.75.13.75.16.75.19.75.23.75.26.75.3.75.33.74.37.74h0l-.71.42Zm10.41,8.92-.35,0-.38-.13-.37-.14-.37-.15-.37-.16-.37-.17-.36-.18-.36-.19-.36-.2-.35-.21-.35-.22-.35-.23-.34-.24-.34-.25-.33-.26-.33-.27-.33-.28-.32-.29-.31-.3-.31-.31-.3-.31-.3-.32-.29-.33-.29-.34-.28-.35-.27-.36-.27-.37-.26-.37-.25-.38-.25-.39-.24-.4-.23-.4-.22-.41.72-.38.21.4.22.39.23.38.24.37.24.37.25.36.26.35.26.34.27.33.27.33.28.32.29.31.29.3.3.29.3.28.31.28.31.27.32.26.32.25.32.24.33.23.33.22.33.21.34.2.34.19.34.18.35.18.35.17.35.16.35.15.35.14.36.13-.35,0,.42.63Zm0,0-.16.1-.18-.06Zm15.33-6.9-.31.25-.52.09-.51.1-.51.11-.5.12-.5.13-.49.14-.49.15-.49.16-.48.17-.48.17-.47.18-.47.19-.47.2-.47.2-.46.21-.46.22-.46.22-.46.23-.46.23-.45.24-.45.24-.45.25-.45.25-.45.26-.45.26-.45.27-.45.27-.45.27-.45.27-.45.28-.45.28-.45.28-.43-.69.46-.28.45-.28.45-.28.45-.28.45-.27.45-.27.45-.27.46-.26.46-.26.46-.26.46-.25.46-.25.46-.24.46-.24.47-.23.47-.23.47-.22.47-.22.48-.21.48-.2.48-.19.49-.19.49-.18.49-.17.5-.16L212,97l.51-.14.51-.13.52-.12.52-.11.53-.1.54-.09-.31.25.75.28Zm0,0-.09.21-.22,0Zm-1.1-14.92h0l.31.6.29.59.26.58.24.56.22.55.2.54.18.53.16.52.14.51.12.5.11.49.09.48.07.47,0,.46,0,.46,0,.45v.88l0,.43,0,.43,0,.42-.06.42-.08.41-.09.41-.1.41-.11.41-.12.4-.13.4-.14.4-.15.4-.16.4-.16.4-.75-.31.16-.39.15-.39.14-.39.13-.39.12-.39.12-.38.1-.39.09-.39.08-.39.07-.39.06-.39.05-.4,0-.4,0-.4v-.83l0-.42,0-.43,0-.44-.07-.45-.08-.45-.1-.46-.12-.47-.14-.49-.15-.5-.17-.51-.19-.52-.21-.53-.24-.55-.26-.56-.28-.58-.3-.59h0l.74-.34Zm-20.09-8.38h0l.65-.31.67-.26.68-.21.7-.16.71-.11.71-.07.72,0,.73,0,.73.06.73.1.73.14.73.17.72.21.72.24.71.28.7.31.69.34.68.36.67.39.65.42.63.44.62.46.6.48.58.5.55.52.53.54.5.56.47.57.44.59.41.6.38.61.35.62-.72.38-.33-.58-.36-.58-.39-.57-.42-.56-.45-.55-.48-.53-.51-.52-.53-.5-.55-.48L209.2,77l-.59-.44-.61-.42-.63-.4-.64-.37-.65-.35-.66-.32-.67-.29-.68-.26-.68-.23-.69-.2L202,73.5l-.69-.13-.69-.09-.68-.06-.68,0-.67,0-.66.06-.65.11-.64.15-.63.19-.62.24-.6.29h0l-.38-.75Z"/><path class="cls-14" d="M198.8,85.09c-2.92,1.69-3.58,6-1.48,9.63s6.17,5.21,9.09,3.53,3.58-6,1.48-9.63-6.17-5.22-9.09-3.53Z"/><path id="_1-2" data-name="1" class="cls-13" d="M197.08,94.86h0l-.19-.35-.18-.36-.16-.36-.14-.36-.13-.36-.11-.36-.1-.36L196,92l-.06-.36-.05-.36,0-.36,0-.36v-.7l0-.35,0-.34.06-.34.07-.33.09-.32.11-.32.12-.31.14-.3.15-.29.17-.28.18-.27.2-.26.21-.25.22-.23.24-.22.25-.21.27-.19.28-.17.27.47-.25.16-.24.17-.23.18-.21.2-.2.21-.19.22-.18.23-.16.24-.15.25-.14.26-.12.27-.11.28-.1.29-.08.3-.07.3-.06.31,0,.32,0,.32v.66l0,.33,0,.34.05.34.06.34.08.34.09.34.11.34.12.34.14.34.15.34.17.34.18.33h0l-.49.29Zm9.45,3.62h0l-.29.16-.3.14-.3.12-.31.1-.31.08-.32.06-.32,0-.32,0h-.66l-.33,0-.33,0-.33-.07-.33-.08-.32-.1-.32-.12-.32-.13-.32-.15-.31-.16-.31-.18-.3-.19-.3-.21-.29-.22-.28-.24-.28-.25-.27-.27-.26-.28-.25-.29-.24-.31-.23-.32-.22-.33-.21-.34.47-.27.2.33.21.31.22.3.23.29.24.28.24.26.25.25.26.24.27.22.27.21.28.2.28.18.29.17.29.15.29.14.3.12.3.11.3.09.3.08.3.06.3,0,.3,0H204l.29,0,.29,0,.29-.05.28-.07.28-.09.27-.1.27-.12.26-.14h0l.27.43Zm1.59-10h0l.19.35.18.36.16.36.14.36.13.36.11.36.1.36.08.36.06.36,0,.36,0,.36,0,.36v.7l0,.35,0,.34-.06.34-.07.33-.09.32-.11.32-.12.31-.14.3-.15.29-.17.28-.18.27-.2.26-.21.25-.22.23-.24.22-.25.21-.27.19-.28.17-.27-.47.25-.16.24-.17.23-.18.21-.2.2-.21.19-.22.18-.23.16-.24.15-.25.14-.26.12-.27.11-.28.1-.29.08-.3.07-.3.06-.31,0-.32,0-.32v-.66l0-.33,0-.34-.05-.34-.06-.34-.08-.34-.09-.34-.11-.34-.12-.34-.14-.34-.15-.34-.17-.34-.18-.33h0l.49-.29Zm-9.46-3.63h0l.29-.16.3-.14.3-.12.31-.1.31-.08.32-.06.32,0,.32,0h.66l.33,0,.33,0,.33.07.33.08.32.1.32.12.32.13.31.15.31.16.31.18.3.19.3.21.29.22.28.24.28.25.27.27.26.28.25.29.24.31.23.32.22.33.21.34-.47.27-.2-.33-.21-.31-.22-.3-.23-.29-.24-.28-.24-.26-.25-.25-.26-.24-.27-.22-.27-.21-.28-.2-.28-.18-.29-.17-.29-.15-.29-.14-.3-.12-.3-.11-.3-.09-.3-.08-.3-.06-.3,0-.3,0h-.59l-.29,0-.29,0-.29.05-.28.07-.28.09-.27.1-.27.12-.26.14h0l-.26-.43Z"/><path class="cls-15" d="M198.17,95.53c2.12,2.82,5.57,3.93,8.11,2.46,2.8-1.62,3.44-5.76,1.42-9.24a8.73,8.73,0,0,0-2-2.41,9.78,9.78,0,0,1,.61.92c2,3.49,1.38,7.63-1.42,9.24C202.83,97.68,200.22,97.2,198.17,95.53Z"/><ellipse class="cls-16" cx="202.81" cy="92.72" rx="3.56" ry="4.12" transform="translate(-19.18 113.9) rotate(-30.02)"/><ellipse class="cls-17" cx="205.52" cy="91.19" rx="1.29" ry="1.5" transform="translate(-18.05 115.05) rotate(-30.02)"/><path class="cls-18" d="M226.57,96.37c-12.54-3.54-31,3.76-33.19,18,0,0,4.56-10.11,15.07-14.87a33.23,33.23,0,0,1,18.12-3.12Z"/><path class="cls-12" d="M165.11,74.28c13.76,5.07,8.85,26-2.2,31.78-7-3.52-9.46-3.84-16.31-4.75-7.17-14.83,5.16-31.95,18.51-27Z"/><path class="cls-4" d="M164.51,76.11c7,2.58,10.14,11.53,7,20a17.91,17.91,0,0,1-8.62,10,37.7,37.7,0,0,0-15.9-4.69,17.47,17.47,0,0,1-.81-14.61c3.12-8.46,11.32-13.23,18.31-10.65Z"/><path id="_1-3" data-name="1" class="cls-13" d="M171.91,96.24l-.76-.28h0l.27-.78.23-.78.2-.78.16-.78.13-.78.1-.77.06-.77,0-.76V89l0-.75-.07-.74-.1-.73-.13-.71-.16-.7-.19-.68-.22-.67-.25-.65-.27-.63-.3-.61-.33-.59-.36-.57-.38-.55-.41-.52-.43-.5-.46-.47-.48-.44-.51-.41-.53-.38-.55-.35-.58-.32-.6-.29-.62-.25.28-.76.67.27.64.31.62.34.59.38.57.41.54.44.52.47.49.5.46.53.43.56.41.58.38.61.35.63.32.65.29.67.26.69.23.7.2.72.17.74.14.75.1.76.07.77,0,.78v.79l0,.8-.06.8-.1.81-.13.81-.17.81-.21.81-.24.81-.28.8Zm-9.2,10.17.4-.71h-.38l.34-.17.33-.18.33-.19.33-.2.32-.21.32-.22.32-.23.31-.24.31-.25.3-.25.3-.26.29-.27.29-.28.28-.29.28-.3.27-.3.27-.31.26-.32.26-.33.25-.34.24-.34.24-.35.23-.36.22-.37.22-.37.21-.38.2-.39.19-.39.19-.4.18-.41.17-.41.16-.42.76.28-.17.44-.18.43-.18.42-.19.42-.2.41-.21.4-.22.4-.23.39-.23.38-.24.37-.25.37-.25.36-.26.35-.27.34-.27.34-.28.33-.29.32-.29.31-.3.3-.3.29-.31.28-.31.28-.32.27-.32.26-.33.25-.33.24-.34.23-.34.22-.34.21-.35.2-.35.19-.35.18Zm.38,0-.19.1-.19-.11Zm-16.43-4.85.71-.4-.32-.2.51,0,.51,0,.51,0,.51.06.51.07.51.07.51.08.51.09.51.09.51.1.51.11.51.11.51.12.51.13.51.13.51.14.51.15.51.16.5.16.5.17.5.18.5.19.5.19.49.2.49.21.49.22.49.22.49.23.48.24.48.25.48.26.47.27-.4.71-.46-.26-.47-.25-.47-.24-.47-.24-.47-.23-.48-.22-.48-.21-.48-.2-.48-.2-.49-.19-.49-.18-.49-.17-.49-.17-.49-.16-.49-.15-.5-.15-.5-.14-.5-.13-.5-.12-.5-.12-.5-.11-.5-.1-.5-.1-.5-.09-.5-.08-.5-.08-.5-.07L149,102l-.5-.06-.5-.05-.5,0-.5,0-.33-.22Zm.32.21-.22,0-.11-.19.33.21Zm-1.16-15.16.76.28h0l-.17.48-.16.48-.14.48-.13.48-.12.48-.1.48-.09.48-.08.48-.06.48-.05.48,0,.47,0,.47V94l0,.46,0,.46,0,.45.06.45.07.44.08.44.09.43.1.43L146,98l.13.42.14.41.15.4.16.4.17.39.18.38.19.37.2.37-.71.4-.21-.39-.2-.4-.19-.4-.18-.41-.17-.42-.16-.43-.15-.43-.13-.44-.12-.44-.11-.45-.1-.46-.09-.46-.07-.47-.06-.47,0-.47,0-.48,0-.48V92.59l0-.49,0-.49.05-.5.07-.5.08-.5.09-.5.11-.5.12-.5.14-.5.15-.5.16-.5.19-.49Zm18.83-10.89-.28.76h0l-.64-.21-.64-.17-.65-.13-.65-.09-.65,0h-.65l-.65,0-.65.06-.65.1-.65.13-.65.17-.64.2-.64.23-.63.27-.62.3-.61.34-.6.37-.59.4-.57.43-.56.46-.55.49-.53.52-.51.54-.49.57-.47.6-.45.62-.43.65-.41.67-.38.7-.36.72-.33.74-.3.77-.76-.28.31-.8.34-.78.37-.75.4-.73.42-.7.45-.68.47-.65.49-.63.52-.6.54-.57.55-.54.57-.51.59-.48.6-.45.62-.42.63-.39.64-.35.65-.32.66-.29.67-.25.68-.22.69-.18.69-.14.7-.1.7-.06.7,0,.7,0,.7.06.7.1.69.14.69.18.71.22Z"/><path class="cls-14" d="M161.85,87.65c3.11,1.3,4.33,5.49,2.71,9.36s-5.44,6-8.56,4.67-4.33-5.49-2.71-9.36,5.45-6,8.56-4.67Z"/><path id="_1-4" data-name="1" class="cls-13" d="M164.81,97.11l-.5-.21h0l.14-.35.12-.35.11-.36.09-.36.08-.35.06-.35.05-.35,0-.35,0-.35v-.68l0-.33,0-.33-.05-.32-.07-.32-.08-.31-.09-.3-.11-.29-.12-.28-.13-.28-.15-.27-.16-.25-.17-.24-.18-.23-.19-.22-.2-.21-.22-.2-.23-.18-.24-.17-.25-.15L162,88l-.27-.12.21-.5.3.14.29.15.28.17.27.19.25.2.24.22.23.23L164,89l.2.26.19.27.17.28.16.29.15.3.13.31.12.32.1.33.09.33.07.34.06.35,0,.35,0,.36v.73l0,.37,0,.37,0,.37-.06.38-.08.38-.1.38-.11.38-.15.34-.15.37Zm-8.91,4.81.21-.5h0l.28.11.28.09.28.07.29,0,.29,0,.29,0h.29l.29,0,.29,0,.29,0,.29-.07.29-.08.29-.1.29-.11.28-.13.28-.14.28-.16.27-.17.27-.19.26-.2.26-.22.25-.23.24-.24.23-.26.23-.27.22-.28.21-.29.2-.3.19-.32.18-.33.17-.34.15-.35.5.21-.16.37-.18.36-.19.35-.2.33-.21.32-.22.31-.23.3-.24.28-.25.27-.26.26-.27.24-.27.23-.28.22-.29.2-.29.19-.3.17-.3.16-.31.14-.31.12-.32.11-.32.09-.32.07-.32.06-.32,0-.32,0h-.32l-.32,0-.32,0-.32-.06-.32-.08-.31-.1-.32-.11ZM153,92.21l.5.21h0l-.14.35-.12.35-.11.36-.09.36-.08.35-.06.35-.05.35,0,.35,0,.35v.68l0,.33,0,.33.05.32.07.32.08.31.1.3.11.29.12.28.13.28.15.27.16.25.17.24.18.23.19.22.2.21.22.2.23.18.24.17.25.15.26.14.27.12-.21.5-.3-.14-.29-.15-.28-.17-.27-.19-.25-.2-.24-.22-.23-.23-.21-.24-.2-.26-.19-.27-.17-.28-.16-.29L153,99l-.13-.31-.12-.32-.1-.33-.09-.33-.07-.34-.06-.35,0-.35,0-.36v-.73l0-.37,0-.37.05-.37.06-.38.08-.38.1-.38.11-.38.13-.38.16-.33ZM162,87.4l-.21.5h0l-.28-.11-.28-.09-.28-.07-.29,0-.29,0-.29,0h-.29l-.29,0-.29,0-.29,0-.29.07-.29.08-.29.1-.29.11-.28.13-.28.14-.28.16-.27.17-.27.19-.26.2-.26.22-.25.23-.24.24-.23.26-.23.27-.22.28-.21.29-.2.3-.19.32-.18.33-.17.34-.15.35-.5-.21.16-.37.18-.36.19-.35.2-.33.21-.32.22-.31.23-.3.24-.28.25-.27.26-.26.27-.24.27-.23.28-.22.29-.2.29-.19.3-.17.3-.16.31-.14.31-.12.32-.11.32-.09.32-.07.32-.06.32,0,.32,0H160l.32,0,.32,0,.32.06.32.08.31.1.32.11Z"/><path class="cls-15" d="M163.82,97.92c-1.74,3.07-5,4.62-7.73,3.49-3-1.24-4.15-5.27-2.6-9a8.87,8.87,0,0,1,1.7-2.65,8.23,8.23,0,0,0-.48,1c-1.55,3.72-.38,7.74,2.6,9,2.17.9,4.69.1,6.51-1.83Z"/><ellipse class="cls-16" cx="158.88" cy="95.77" rx="4.12" ry="3.56" transform="translate(9.39 205.61) rotate(-67.39)"/><ellipse class="cls-17" cx="155.99" cy="94.58" rx="1.5" ry="1.29" transform="translate(8.7 202.21) rotate(-67.39)"/><path class="cls-18" d="M136.63,102.68c12-5.13,31.2-.27,35.23,13.56,0,0-5.83-9.43-16.86-12.8a33,33,0,0,0-18.37-.76Z"/><path class="cls-5" d="M170.11,200.18c34.92,10.17,57.48-32.82,65.64-14.58-14.16-5.47-16.74,23.68-33,27.48-13.4,3.15-30.65-4.89-32.68-12.9Z"/><path class="cls-13" d="M161.52,194.29a.6.6,0,0,1-.05-.77.45.45,0,0,1,.68-.06l-.63.83Zm37.11,16.29.05,1.09h0l-1.28.05h-1.28l-1.28-.06-1.28-.11-1.27-.16-1.27-.21-1.27-.25-1.26-.3-1.26-.34-1.25-.38-1.25-.42-1.24-.46-1.23-.5L181,208l-1.21-.57-1.2-.6-1.19-.63-1.18-.66-1.16-.68-1.15-.71-1.14-.73-1.12-.75-1.1-.77-1.09-.79-1.07-.81-1.05-.82-1-.84-1-.85-1-.86-1-.87-.94-.87-.92-.88.63-.82.91.87.93.86.95.86,1,.85,1,.84,1,.83,1,.81,1.06.8,1.07.78,1.09.76,1.11.74,1.12.72,1.13.7,1.15.67,1.16.65,1.17.62,1.18.59,1.19.56,1.2.52,1.21.49,1.22.45,1.22.42,1.23.38,1.23.34,1.24.29,1.24.25,1.24.2,1.24.16,1.24.11,1.24.06h1.24l1.23-.09Zm38.44-25-.63.83-1.39-1.23-1.29-.93-1.2-.65-1.11-.39-1-.15-1,.06-.93.26-.9.45-.88.63-.86.79-.85,1-.85,1.09-.85,1.21-.85,1.31-.86,1.4-.88,1.47-.9,1.52-.93,1.56-1,1.58-1,1.58-1.06,1.56L214.74,202l-1.19,1.48-1.26,1.41L211,206.21l-1.43,1.23L208,208.55l-1.63,1-1.74.82-1.86.64-2,.45-2.1.24-.05-1.09,2-.23,1.88-.43,1.77-.61,1.66-.78,1.55-.93,1.46-1.06,1.37-1.18,1.29-1.28,1.22-1.37,1.15-1.44,1.09-1.5,1-1.53,1-1.56,1-1.56.92-1.55.9-1.52.88-1.48.87-1.42.87-1.34.87-1.25.89-1.14.91-1,.95-.87,1-.7,1-.52,1.1-.31,1.16-.07,1.21.18,1.26.44,1.32.71,1.38,1,1.47,1.3Zm0,0a.59.59,0,0,1,.05.77.45.45,0,0,1-.68.06l.63-.83Z"/><ellipse class="cls-19" cx="192.61" cy="131.99" rx="17.09" ry="7.43" transform="translate(-13.87 22.96) rotate(-6.59)"/><path class="cls-12" d="M204.51,131.49a14.6,14.6,0,0,0-25.91,0C185.63,125.4,197.47,125.4,204.51,131.49Z"/><path class="cls-20" d="M204.51,131.49a14.6,14.6,0,0,0-25.91,0C186.65,121.89,197.52,122.54,204.51,131.49Z"/><ellipse class="cls-19" cx="215.98" cy="103.63" rx="6.4" ry="3.71" transform="translate(-23.56 100.55) rotate(-24.9)"/><ellipse class="cls-19" cx="150.94" cy="109.9" rx="3.71" ry="6.4" transform="translate(0.76 220.82) rotate(-72.51)"/><path class="cls-9" d="M243,78.15c-6.81-9.51-17.93-21.61-24.69-26.89C231.74,53.72,238.67,65.23,243,78.15Z"/><path class="cls-10" d="M182.33,22.5a154.73,154.73,0,0,0,18.38,4.85"/><path class="cls-21" d="M187.61,152c-10.14-.32-19.31-3-26.87-8.87,4.17,16.82,13.95,28,28.74,34.56a22.89,22.89,0,0,0,7.06.14Q197.05,164.15,187.61,152Z"/><path class="cls-22" d="M209.8,170.45a21.77,21.77,0,0,1-13.26,7.43q.53-13.71-8.93-25.83c4.58.28,11.46-.45,20.69-2.46q-6.53,12.48,1.5,20.86Z"/><path class="cls-23" d="M189.38,177.69a64.83,64.83,0,0,1-11.48-6.84c6.47-7.22,17.49-7,26,1.39a24.07,24.07,0,0,0-6.19-4.48c14.78-10.77,25.45,6.75,20,19.59-7.72,15.13-29.81,6.19-28.34-7.61q.36-5.53-2.37-8.28c1.51,1.49,2.2,3.36,2.3,6.23Z"/><path class="cls-24" d="M205.28,196.42a17.51,17.51,0,0,1-5-.74c-6.62-2-12.87-8.11-12-16.05,0-.39,0-.76,0-1.13a66,66,0,0,1-11.11-6.7l-1.06-.76.87-1a16.55,16.55,0,0,1,11.89-5.57,19.35,19.35,0,0,1,8.75,1.89c5.85-4,11.82-4.2,16.46-.52,5.89,4.67,8,14.31,4.76,22A15.07,15.07,0,0,1,205.28,196.42Zm-15.41-22.74a14.39,14.39,0,0,1,.76,6.15c-.71,6.71,4.67,11.9,10.35,13.59,5.2,1.55,12.08.62,15.77-6.59,2.8-6.65,1-15.08-4.08-19.12-3.56-2.82-8-2.82-12.63,0a24.31,24.31,0,0,1,2.43,1.71,22.82,22.82,0,0,1,2.31,2.05l-1.66,1.66a25.89,25.89,0,0,0-2.1-1.86,24.57,24.57,0,0,0-3.8-2.41l-.76-.39a16.57,16.57,0,0,0-7.46-1.57,13.94,13.94,0,0,0-9.29,3.84,64.66,64.66,0,0,0,8.3,5,6.73,6.73,0,0,0-.24-1,6.43,6.43,0,0,0-1.51-2.47l1.66-1.67A8,8,0,0,1,189.87,173.68Z"/><path class="cls-20" d="M207,150.73c-18.75,4-33.41,2.22-44.66-5.68,4,15.25,12.39,24.87,26.16,31.39a16.66,16.66,0,0,1,.17,1.82c-15.12-6-24.66-17.52-28.74-34.65A27.81,27.81,0,0,1,151,126.47a9.94,9.94,0,0,0-4.17,5.77,8.83,8.83,0,0,1-1.49-.63q2.83-8,11.14-8.08a6.2,6.2,0,0,1-.07,1.56,8.77,8.77,0,0,0-4.06.67q1.38,18.31,26.27,24.63A64.09,64.09,0,0,0,207,149c15.1-4,25.18-15.37,29.18-30.28a7.69,7.69,0,0,0,1.33.36c-3.09,14-12.53,24.49-28.62,31.36a21.34,21.34,0,0,0-2.24,13.34,5.48,5.48,0,0,0-1.62.18q-.48-9.23,2-13.2Z"/><path class="cls-25" d="M187.72,177.86c.37.15.72.27,1,.38a24.23,24.23,0,0,0,.14,5.17c1.31,6.08,6,10.86,14,12.44C190.68,196.72,185.13,187,187.72,177.86Z"/><polygon class="cls-1" points="402.47 58.25 425.33 99.46 452.41 85.69 398.05 9.62 362.24 95.47 385.82 106.14 402.47 58.25"/></g></g></g></svg>