<svg width="17" height="9" viewBox="0 0 17 9" fill="none" xmlns="http://www.w3.org/2000/svg">
<path d="M1.28524 0H15.7148C15.97 0.000983823 16.2192 0.0715227 16.4309 0.202698C16.6425 0.333872 16.8071 0.519792 16.9038 0.736947C17.0005 0.954102 17.025 1.19274 16.9741 1.42268C16.9233 1.65263 16.7995 1.86356 16.6182 2.02879L9.41636 8.64906C9.29638 8.76026 9.15363 8.84852 8.99636 8.90876C8.83908 8.96899 8.67038 9 8.5 9C8.32962 9 8.16092 8.96899 8.00364 8.90876C7.84637 8.84852 7.70362 8.76026 7.58364 8.64906L0.381785 2.02879C0.20055 1.86356 0.0766842 1.65263 0.0258516 1.42268C-0.0249811 1.19274 -0.000498346 0.954102 0.0962047 0.736947C0.192908 0.519792 0.357488 0.333872 0.569134 0.202698C0.78078 0.0715227 1.02999 0.000983823 1.28524 0Z" fill="#FF6A00"/>
</svg>
