<svg width="25" height="26" viewBox="0 0 25 26" fill="none" xmlns="http://www.w3.org/2000/svg">
<path d="M24.9482 11.6143C24.8353 10.0744 24.4004 8.61227 23.7441 7.22788C22.9617 5.57719 21.8891 4.15875 20.5301 2.97765C18.8153 1.48756 16.8582 0.539728 14.6582 0.128579C14.2428 0.0508218 13.8216 0.0594616 13.4062 0C13.3735 0 13.3412 0 13.3085 0C13.2757 0.0365917 13.2327 0.0228698 13.1932 0.0259191C13.1619 0.0259191 13.1311 0.0259191 13.0998 0.0259191C13.0397 0.016263 12.9737 0.048789 12.9185 0C12.6258 0 12.3336 0 12.0409 0C11.9856 0.048789 11.9202 0.0167712 11.8596 0.0259191C11.8283 0.0259191 11.797 0.0259191 11.7662 0.0259191C11.7267 0.0228698 11.6836 0.0365917 11.6509 0C11.602 0 11.5532 0 11.5048 0C11.2429 0.0503136 10.9746 0.0289685 10.7122 0.0665766C9.10884 0.295275 7.61106 0.844151 6.20857 1.68169C4.90773 2.45876 3.78232 3.45436 2.82697 4.65376C1.41519 6.42642 0.51506 8.44761 0.125589 10.7163C0.0571746 11.1142 0.0591293 11.5178 0 11.9157C0 11.9833 0 12.0509 0 12.1185C0.0351844 12.1525 0.0219902 12.1972 0.0249223 12.2384C0.0249223 12.2709 0.0249223 12.303 0.0249223 12.3355C0.0156375 12.398 0.0469125 12.4666 0 12.524C0 12.7944 0 13.0648 0 13.3351C0.0317637 13.3651 0.0234562 13.4058 0.0249223 13.4434C0.0249223 13.4724 0.0249223 13.5018 0.0249223 13.5308C0.0229676 13.5684 0.0317637 13.6091 0 13.6396C0 13.7412 0 13.8423 0 13.944C0.0317637 13.9785 0.0244336 14.0217 0.0249223 14.0629C0.035673 14.9213 0.196935 15.7532 0.421724 16.5755C0.671923 17.4888 1.02084 18.3589 1.45429 19.1929C1.55056 19.3779 1.55789 19.5486 1.49387 19.7484C1.11417 20.933 0.754998 22.1248 0.387028 23.3135C0.236517 23.7999 0.0430031 24.2766 0 24.7939C0 24.9124 0 25.0308 0 25.1487C0.029809 25.4536 0.170058 25.6925 0.421235 25.8465C0.778943 26.0665 1.16255 26.0127 1.52954 25.8937C2.83234 25.4709 4.13954 25.0577 5.42279 24.5785C6.02337 24.3538 6.49396 24.4097 7.04322 24.7126C8.29667 25.4038 9.65273 25.7875 11.0655 25.9308C11.8332 26.0086 12.6038 25.9908 13.3749 25.9634C15.0213 25.9049 16.5611 25.4287 18.0271 24.6842C19.412 23.9808 20.6215 23.0264 21.6741 21.8493C22.688 20.716 23.4641 19.4317 24.0573 18.0184C24.9183 15.9677 25.1089 13.8119 24.9482 11.6143ZM21.0129 19.3631C19.5215 21.5164 17.5321 22.9506 15.0506 23.5925C12.315 24.3005 9.70893 23.9117 7.24847 22.4775C7.1566 22.4241 7.06424 22.3713 6.97481 22.3133C6.65815 22.108 6.33172 22.0811 5.97499 22.2036C4.82905 22.5959 3.67921 22.975 2.48783 23.3735C2.85873 22.172 3.20471 21.0067 3.58196 19.8525C3.73003 19.3992 3.68947 19.0099 3.45393 18.6033C2.40084 16.787 1.9024 14.8095 1.95811 12.6928C2.01773 10.4215 2.68378 8.3546 3.99342 6.52553C5.59382 4.29038 7.6912 2.82976 10.3217 2.27123C13.3285 1.6324 16.113 2.23057 18.6106 4.10183C20.8218 5.75862 22.2448 7.98513 22.7838 10.7676C23.3883 13.885 22.8073 16.7732 21.0129 19.3631Z" fill="#FF6A00"/>
<path d="M7.63659 11.7143C8.30656 11.7336 8.84557 12.3313 8.82065 13.026C8.79572 13.7126 8.23082 14.2641 7.57209 14.2453C6.90212 14.2259 6.36312 13.6283 6.38804 12.9336C6.41345 12.2469 6.97835 11.6955 7.63659 11.7143Z" fill="black"/>
<path d="M12.4712 11.7139C13.1397 11.7088 13.6992 12.2887 13.6968 12.9839C13.6943 13.6695 13.147 14.2413 12.4878 14.2458C11.8193 14.2509 11.2598 13.6711 11.2622 12.9758C11.2647 12.2902 11.812 11.719 12.4712 11.7139Z" fill="black"/>
<path d="M17.3628 14.2464C16.6943 14.2514 16.1348 13.6716 16.1372 12.9763C16.1392 12.2907 16.6865 11.719 17.3462 11.7139C18.0147 11.7088 18.5742 12.2887 18.5718 12.9839C18.5698 13.6695 18.0225 14.2413 17.3628 14.2464Z" fill="black"/>
</svg>
