<svg width="26" height="26" viewBox="0 0 26 26" fill="none" xmlns="http://www.w3.org/2000/svg">
<path d="M0 12.6118C0.0779204 12.7135 0.0758877 12.8144 0 12.916C0 12.8151 0 12.7135 0 12.6118Z" fill="#0C0C0C"/>
<path d="M0 13.1191C0.0758877 13.2208 0.078598 13.3217 0 13.4234C0 13.3217 0 13.2201 0 13.1191Z" fill="#0E0E0E"/>
<path d="M0.044042 12.2544C0.0508177 12.312 0.0650466 12.3723 0 12.4089C0 12.3581 0 12.3073 0 12.2572C0.0135514 12.2355 0.0277803 12.2334 0.044042 12.2544Z" fill="#5A5A5A"/>
<path d="M0 13.5752C0.0650466 13.6125 0.0501401 13.6728 0.0433644 13.7304C0.0271028 13.75 0.0128738 13.7493 0 13.7276C0 13.6768 0 13.626 0 13.5752Z" fill="#4E4E4E"/>
<path d="M0.044042 12.2547C0.0291355 12.256 0.0149065 12.2574 0 12.2574C0 12.2235 0 12.1896 0 12.1558C0.0616588 12.168 0.048785 12.2127 0.044042 12.2547Z" fill="#808080"/>
<path d="M0 13.7271C0.0149065 13.7277 0.0291355 13.7284 0.044042 13.7298C0.048785 13.7711 0.0582709 13.8145 0 13.828C0 13.7948 0 13.7609 0 13.7271Z" fill="#717171"/>
<path d="M25.9434 11.6266C25.8228 10.0512 25.3445 8.56263 24.6364 7.15329C23.8179 5.52373 22.6938 4.13065 21.2919 2.96726C20.0981 1.97734 18.7646 1.23404 17.3038 0.700795C15.4615 0.027969 13.5595 -0.0845075 11.6359 0.0496512C10.0599 0.160095 8.56786 0.631006 7.15716 1.33635C5.52083 2.15486 4.11488 3.27624 2.94404 4.6849C1.59161 6.31242 0.689088 8.16219 0.229018 10.2294C0.102313 10.7979 0.0555607 11.3759 0 11.9525C0 12.0203 0 12.088 0 12.1551C0.0338785 12.1863 0.0237149 12.2283 0.0264252 12.2669C0.0210046 12.315 0.0413317 12.3672 0 12.4085C0 12.4763 0 12.544 0 12.6111C0.0413317 12.7127 0.0413317 12.8137 0 12.9153C0 12.9831 0 13.0508 0 13.1179C0.0413317 13.2196 0.0413317 13.3205 0 13.4222C0 13.473 0 13.5238 0 13.5739C0.0413317 13.6153 0.0210046 13.6681 0.0264252 13.7155C0.0243925 13.7542 0.034556 13.7962 0 13.8273C0 13.912 0 13.9961 0 14.0808C0.0501401 14.3281 0.0284579 14.5822 0.0623364 14.8301C0.291355 16.5173 0.844929 18.0926 1.69799 19.565C2.5646 21.0611 3.69749 22.3227 5.06415 23.3756C6.58665 24.5492 8.2948 25.3291 10.1662 25.7593C10.7422 25.8921 11.3283 25.9402 11.9144 25.9945C11.9821 25.9945 12.0499 25.9945 12.117 25.9945C12.1481 25.9606 12.1901 25.9707 12.2288 25.968C12.2769 25.9734 12.329 25.9531 12.3704 25.9945C12.4381 25.9945 12.5059 25.9945 12.573 25.9945C12.6746 25.9531 12.7756 25.9531 12.8772 25.9945C12.945 25.9945 13.0127 25.9945 13.0798 25.9945C13.1645 25.9531 13.2485 25.9531 13.3332 25.9945C13.4179 25.9945 13.5019 25.9945 13.5866 25.9945C13.6279 25.9531 13.6808 25.9734 13.7282 25.968C13.7668 25.9701 13.8089 25.9599 13.84 25.9945C13.8739 25.9945 13.9078 25.9945 13.9417 25.9945C14.3489 25.9369 14.7636 25.9579 15.1694 25.884C18.0003 25.3691 20.4172 24.0912 22.4153 22.009C23.5909 20.7839 24.463 19.3746 25.1134 17.8162C25.9441 15.8289 26.1061 13.7433 25.9434 11.6266ZM12.9944 24.4794C6.6727 24.4936 1.5225 19.3536 1.51708 13.0244C1.51166 6.69457 6.64763 1.5586 12.9815 1.55995C19.2985 1.56063 24.427 6.68983 24.4345 13.0149C24.4426 19.3299 19.3182 24.4652 12.9944 24.4794Z" fill="#FF6A00"/>
<path d="M17.0031 20.015C16.0579 19.9832 15.1472 19.7596 14.2657 19.4438C10.1759 17.9769 7.47984 15.1684 6.22227 11.0007C6.02985 10.3631 5.88349 9.70989 5.88281 9.03774C5.88281 8.40286 6.10099 7.85132 6.54615 7.39125C6.76365 7.16697 6.97234 6.93389 7.18781 6.70758C8.02054 5.83352 9.15818 5.79083 10.0492 6.60459C10.3297 6.86071 10.6075 7.12158 10.8718 7.39396C11.5873 8.13251 11.6259 9.23491 10.9551 10.0128C10.514 10.5243 10.0654 11.0257 9.36552 11.2107C9.064 11.29 9.02064 11.4831 9.18054 11.8171C9.58912 12.6736 10.0953 13.4684 10.72 14.1852C11.718 15.331 12.9261 16.1868 14.3165 16.7912C14.6946 16.9558 14.8023 16.9219 14.9663 16.5527C15.2678 15.8731 15.7624 15.3662 16.3763 14.9685C16.999 14.5647 17.8588 14.6236 18.4849 15.1142C18.8976 15.4374 19.2858 15.7945 19.6185 16.199C20.1301 16.8217 20.2608 17.5439 19.8787 18.2547C19.4281 19.0929 18.781 19.7515 17.785 19.9405C17.5275 19.9886 17.2673 20.0191 17.0031 20.015Z" fill="black"/>
</svg>
