<svg width="110" height="18" viewBox="0 0 110 18" fill="none" xmlns="http://www.w3.org/2000/svg">
<rect width="18" height="18" rx="2" fill="#13CD1B"/>
<path d="M8.52447 3.46352C8.67415 3.00287 9.32585 3.00287 9.47553 3.46353L10.4593 6.49139C10.5263 6.6974 10.7183 6.83688 10.9349 6.83688H14.1186C14.6029 6.83688 14.8043 7.45669 14.4124 7.74139L11.8368 9.61271C11.6615 9.74003 11.5882 9.96572 11.6552 10.1717L12.639 13.1996C12.7886 13.6602 12.2614 14.0433 11.8695 13.7586L9.29389 11.8873C9.11865 11.76 8.88135 11.76 8.70611 11.8873L6.13045 13.7586C5.73859 14.0433 5.21136 13.6602 5.36103 13.1996L6.34484 10.1717C6.41178 9.96572 6.33845 9.74003 6.16321 9.61271L3.58755 7.74139C3.1957 7.45669 3.39708 6.83688 3.88145 6.83688H7.06513C7.28174 6.83688 7.47372 6.6974 7.54066 6.49139L8.52447 3.46352Z" fill="white"/>
<rect x="23" width="18" height="18" rx="2" fill="#13CD1B"/>
<path d="M31.5245 3.46352C31.6741 3.00287 32.3259 3.00287 32.4755 3.46353L33.4593 6.49139C33.5263 6.6974 33.7183 6.83688 33.9349 6.83688H37.1186C37.6029 6.83688 37.8043 7.45669 37.4124 7.74139L34.8368 9.61271C34.6615 9.74003 34.5882 9.96572 34.6552 10.1717L35.639 13.1996C35.7886 13.6602 35.2614 14.0433 34.8695 13.7586L32.2939 11.8873C32.1186 11.76 31.8814 11.76 31.7061 11.8873L29.1305 13.7586C28.7386 14.0433 28.2114 13.6602 28.361 13.1996L29.3448 10.1717C29.4118 9.96572 29.3385 9.74003 29.1632 9.61271L26.5876 7.74139C26.1957 7.45669 26.3971 6.83688 26.8814 6.83688H30.0651C30.2817 6.83688 30.4737 6.6974 30.5407 6.49139L31.5245 3.46352Z" fill="white"/>
<rect x="46" width="18" height="18" rx="2" fill="#13CD1B"/>
<path d="M54.5245 3.46352C54.6741 3.00287 55.3259 3.00287 55.4755 3.46353L56.4593 6.49139C56.5263 6.6974 56.7183 6.83688 56.9349 6.83688H60.1186C60.6029 6.83688 60.8043 7.45669 60.4124 7.74139L57.8368 9.61271C57.6615 9.74003 57.5882 9.96572 57.6552 10.1717L58.639 13.1996C58.7886 13.6602 58.2614 14.0433 57.8695 13.7586L55.2939 11.8873C55.1186 11.76 54.8814 11.76 54.7061 11.8873L52.1305 13.7586C51.7386 14.0433 51.2114 13.6602 51.361 13.1996L52.3448 10.1717C52.4118 9.96572 52.3385 9.74003 52.1632 9.61271L49.5876 7.74139C49.1957 7.45669 49.3971 6.83688 49.8814 6.83688H53.0651C53.2817 6.83688 53.4737 6.6974 53.5407 6.49139L54.5245 3.46352Z" fill="white"/>
<rect x="69" width="18" height="18" rx="2" fill="#13CD1B"/>
<path d="M77.5245 3.46352C77.6741 3.00287 78.3259 3.00287 78.4755 3.46353L79.4593 6.49139C79.5263 6.6974 79.7183 6.83688 79.9349 6.83688H83.1186C83.6029 6.83688 83.8043 7.45669 83.4124 7.74139L80.8368 9.61271C80.6615 9.74003 80.5882 9.96572 80.6552 10.1717L81.639 13.1996C81.7886 13.6602 81.2614 14.0433 80.8695 13.7586L78.2939 11.8873C78.1186 11.76 77.8814 11.76 77.7061 11.8873L75.1305 13.7586C74.7386 14.0433 74.2114 13.6602 74.361 13.1996L75.3448 10.1717C75.4118 9.96572 75.3385 9.74003 75.1632 9.61271L72.5876 7.74139C72.1957 7.45669 72.3971 6.83688 72.8814 6.83688H76.0651C76.2817 6.83688 76.4737 6.6974 76.5407 6.49139L77.5245 3.46352Z" fill="white"/>
<rect x="92" width="18" height="18" rx="2" fill="#13CD1B"/>
<path d="M100.524 3.46352C100.674 3.00287 101.326 3.00287 101.476 3.46353L102.459 6.49139C102.526 6.6974 102.718 6.83688 102.935 6.83688H106.119C106.603 6.83688 106.804 7.45669 106.412 7.74139L103.837 9.61271C103.662 9.74003 103.588 9.96572 103.655 10.1717L104.639 13.1996C104.789 13.6602 104.261 14.0433 103.87 13.7586L101.294 11.8873C101.119 11.76 100.881 11.76 100.706 11.8873L98.1305 13.7586C97.7386 14.0433 97.2114 13.6602 97.361 13.1996L98.3448 10.1717C98.4118 9.96572 98.3385 9.74003 98.1632 9.61271L95.5876 7.74139C95.1957 7.45669 95.3971 6.83688 95.8814 6.83688H99.0651C99.2817 6.83688 99.4737 6.6974 99.5407 6.49139L100.524 3.46352Z" fill="white"/>
</svg>
