<svg width="20" height="20" viewBox="0 0 20 20" fill="none" xmlns="http://www.w3.org/2000/svg">
<path d="M19.9832 9.98375C19.9832 8.62875 19.3882 7.35042 18.3791 6.54708C18.4957 5.19542 18.0124 3.87125 17.0541 2.91208C16.0957 1.95458 14.7749 1.47208 13.4899 1.61625C11.8116 -0.513749 8.18573 -0.553749 6.54657 1.58708C5.19323 1.46708 3.87073 1.95292 2.9124 2.91208C1.9549 3.87042 1.47157 5.19542 1.61657 6.47625C-0.513434 8.15458 -0.554267 11.7804 1.5874 13.4204C1.47073 14.7721 1.95407 16.0963 2.9124 17.0554C3.87073 18.0129 5.19323 18.4971 6.47657 18.3513C8.1549 20.4813 11.7807 20.5213 13.4199 18.3804C14.7699 18.4938 16.0949 18.0146 17.0541 17.0554C18.0116 16.0971 18.4949 14.7721 18.3499 13.4913C19.3882 12.6179 19.9832 11.3396 19.9832 9.98458V9.98375ZM14.5999 8.78875L10.6507 12.5954C9.68157 13.5629 8.09573 13.5546 7.12657 12.5846L5.2499 10.8413C4.91323 10.5279 4.89323 10.0004 5.20657 9.66375C5.52073 9.32625 6.04907 9.30792 6.38407 9.62042L8.2824 11.3846C8.63073 11.7321 9.1574 11.7313 9.4824 11.4054L13.4424 7.58792C13.7741 7.26958 14.3016 7.27875 14.6207 7.60958C14.9407 7.94042 14.9307 8.46875 14.5999 8.78792V8.78875Z" fill="#13CD1B"/>
</svg>
