<svg width="14" height="15" viewBox="0 0 14 15" fill="none" xmlns="http://www.w3.org/2000/svg">
<g clip-path="url(#clip0_2432_952)">
<path d="M10.2694 5.96216C10.4876 6.1843 10.4842 6.5412 10.2615 6.7594L7.76606 9.2092C7.32459 9.64221 6.75626 9.85816 6.18737 9.85816C5.62467 9.85816 5.06198 9.64616 4.6222 9.2216L3.5515 8.16895C3.32936 7.95075 3.32654 7.59385 3.54474 7.37171C3.76237 7.149 4.1204 7.14618 4.34198 7.36494L5.40929 8.41421C5.84682 8.83708 6.5375 8.83482 6.97728 8.40406L9.47218 5.95483C9.69376 5.73607 10.0495 5.74001 10.2694 5.96216ZM13.5317 7.59836C13.5317 11.3292 10.4966 14.3642 6.76585 14.3642C3.03505 14.3642 0 11.3292 0 7.59836C0 3.86756 3.03505 0.83252 6.76585 0.83252C10.4966 0.83252 13.5317 3.86756 13.5317 7.59836ZM12.404 7.59836C12.404 4.48946 9.87475 1.96016 6.76585 1.96016C3.65694 1.96016 1.12764 4.48946 1.12764 7.59836C1.12764 10.7073 3.65694 13.2366 6.76585 13.2366C9.87475 13.2366 12.404 10.7073 12.404 7.59836Z" fill="#8B8B8B"/>
</g>
<defs>
<clipPath id="clip0_2432_952">
<rect width="13.5317" height="13.5317" fill="white" transform="translate(0 0.83252)"/>
</clipPath>
</defs>
</svg>
