<svg width="14" height="14" viewBox="0 0 14 14" fill="none" xmlns="http://www.w3.org/2000/svg">
<g clip-path="url(#clip0_2432_908)">
<g clip-path="url(#clip1_2432_908)">
<path d="M10.2694 5.12964C10.4876 5.35178 10.4842 5.70868 10.2615 5.92688L7.76606 8.37668C7.32459 8.80969 6.75626 9.02564 6.18737 9.02564C5.62467 9.02564 5.06198 8.81364 4.6222 8.38908L3.5515 7.33643C3.32936 7.11823 3.32654 6.76133 3.54474 6.53919C3.76237 6.31648 4.1204 6.31366 4.34198 6.53242L5.40929 7.58169C5.84682 8.00456 6.5375 8.0023 6.97728 7.57154L9.47218 5.12231C9.69376 4.90355 10.0495 4.90749 10.2694 5.12964ZM13.5317 6.76585C13.5317 10.4966 10.4966 13.5317 6.76585 13.5317C3.03505 13.5317 0 10.4966 0 6.76585C0 3.03505 3.03505 0 6.76585 0C10.4966 0 13.5317 3.03505 13.5317 6.76585ZM12.404 6.76585C12.404 3.65694 9.87475 1.12764 6.76585 1.12764C3.65694 1.12764 1.12764 3.65694 1.12764 6.76585C1.12764 9.87475 3.65694 12.404 6.76585 12.404C9.87475 12.404 12.404 9.87475 12.404 6.76585Z" fill="#128B4C"/>
</g>
</g>
<defs>
<clipPath id="clip0_2432_908">
<rect width="13.5317" height="13.5317" fill="white"/>
</clipPath>
<clipPath id="clip1_2432_908">
<rect width="13.5317" height="13.5317" fill="white"/>
</clipPath>
</defs>
</svg>
