<svg width="26" height="30" viewBox="0 0 26 30" fill="none" xmlns="http://www.w3.org/2000/svg">
<path d="M17.2974 22.9952C17.2974 21.4099 16.2989 20.4881 14.3849 18.8632C13.9524 18.4925 13.4854 18.0995 13.0034 17.6621C12.4536 18.1675 11.9309 18.6123 11.4515 19.0213C9.54113 20.6351 8.70459 21.4247 8.70459 22.9952C8.70459 24.1347 9.15724 25.2275 9.96297 26.0332C10.7687 26.8389 11.8615 27.2916 13.001 27.2916C14.1404 27.2916 15.2332 26.8389 16.039 26.0332C16.8447 25.2275 17.2974 24.1347 17.2974 22.9952Z" fill="white"/>
<path d="M18.4477 4.98588C16.9649 3.72674 15.4326 2.4256 13.8831 0.877317L13.0009 0L12.1359 0.878553C9.35074 3.67361 8.03353 7.96629 7.46265 10.5414C7.02459 9.86309 6.69951 9.1182 6.50008 8.33575L5.97245 6.31298L4.44888 7.74263C1.7811 10.2485 0.000514281 12.7335 0.000514281 16.7123C-0.0251365 19.5834 0.909413 22.3807 2.65568 24.6598C4.40195 26.9389 6.85977 28.569 9.63865 29.2913C10.3369 29.4682 11.0479 29.59 11.7652 29.6558C10.2099 29.3659 8.8047 28.5416 7.79273 27.3255C6.78076 26.1093 6.22561 24.5777 6.22329 22.9956C6.22329 20.2154 7.90008 18.7944 9.8413 17.1361C10.5345 16.5467 11.3241 15.8782 12.1211 15.0763L13.0009 14.2014L13.8757 15.0763C14.5875 15.788 15.2992 16.391 15.9875 16.9767C17.9349 18.6288 19.7735 20.1894 19.7735 22.9956C19.7715 24.5715 19.2209 26.0975 18.2161 27.3115C17.2113 28.5255 15.8152 29.3518 14.2674 29.6484C17.4808 29.3366 20.4629 27.8391 22.632 25.4479C24.8012 23.0567 26.0019 19.9432 26 16.7147C26 11.3989 22.4994 8.42719 18.4477 4.98588Z" fill="white"/>
</svg>
