<svg width="21" height="21" viewBox="0 0 21 21" fill="none" xmlns="http://www.w3.org/2000/svg">
<path d="M10.2366 0.810569C10.3195 0.555436 10.6805 0.555436 10.7634 0.810568L13.0197 7.75495C13.0568 7.86905 13.1631 7.9463 13.2831 7.9463H20.5849C20.8531 7.9463 20.9647 8.28958 20.7476 8.44726L14.8404 12.7391C14.7433 12.8096 14.7027 12.9346 14.7398 13.0487L16.9962 19.9931C17.0791 20.2483 16.787 20.4604 16.57 20.3027L10.6628 16.0109C10.5657 15.9404 10.4343 15.9404 10.3372 16.0109L4.42998 20.3027C4.21295 20.4604 3.92094 20.2483 4.00384 19.9931L6.26021 13.0487C6.29728 12.9346 6.25667 12.8096 6.15961 12.7391L0.252361 8.44726C0.0353328 8.28958 0.14687 7.9463 0.415132 7.9463H7.71689C7.83686 7.9463 7.94319 7.86905 7.98026 7.75496L10.2366 0.810569Z" fill="#FF6A00"/>
</svg>
